<svg width="255" height="90" viewBox="0 0 255 90" fill="none" xmlns="http://www.w3.org/2000/svg">
<g clip-path="url(#clip0_42:16)">
<path d="M86.8582 65.0084C86.1355 65.0084 85.5032 64.9478 84.9612 64.8265C84.4192 64.7356 83.9374 64.5992 83.5159 64.4173V60.9613C83.9976 61.0825 84.5095 61.1886 85.0515 61.2796C85.5935 61.3705 86.1656 61.416 86.7678 61.416C87.5206 61.416 88.2282 61.2644 88.8906 60.9613C89.5832 60.6581 90.1402 60.1276 90.5618 59.3697C90.9833 58.6118 91.1941 57.5507 91.1941 56.1865V23.9002H95.259V55.8682C95.259 58.9907 94.4912 61.2947 92.9556 62.7802C91.4199 64.2657 89.3875 65.0084 86.8582 65.0084ZM112.577 31.5398C114.655 31.5398 116.432 31.9945 117.907 32.904C119.413 33.8135 120.557 35.1019 121.34 36.7693C122.153 38.4063 122.559 40.3314 122.559 42.5444V44.9545H105.983C106.043 47.7133 106.736 49.8202 108.061 51.2754C109.416 52.7002 111.298 53.4126 113.707 53.4126C115.242 53.4126 116.597 53.2762 117.772 53.0034C118.976 52.7002 120.21 52.2758 121.475 51.7301V55.2316C120.241 55.7773 119.021 56.1714 117.817 56.4139C116.612 56.6867 115.182 56.8232 113.526 56.8232C111.237 56.8232 109.205 56.3533 107.428 55.4135C105.682 54.4737 104.312 53.0792 103.318 51.2299C102.355 49.3503 101.873 47.0615 101.873 44.3634C101.873 41.6956 102.31 39.4067 103.183 37.4968C104.086 35.5869 105.336 34.1166 106.932 33.0859C108.558 32.0552 110.44 31.5398 112.577 31.5398ZM112.532 34.8139C110.635 34.8139 109.13 35.4354 108.016 36.6783C106.932 37.8909 106.284 39.5886 106.073 41.7714H118.404C118.374 39.7099 117.892 38.0425 116.959 36.7693C116.025 35.4657 114.55 34.8139 112.532 34.8139ZM137.304 56.8232C134.293 56.8232 131.884 55.7773 130.077 53.6855C128.271 51.5634 127.367 48.4105 127.367 44.2269C127.367 40.0434 128.271 36.8905 130.077 34.7684C131.914 32.616 134.338 31.5398 137.349 31.5398C139.216 31.5398 140.737 31.8884 141.911 32.5857C143.115 33.2829 144.094 34.1318 144.847 35.1322H145.118C145.088 34.7381 145.027 34.1621 144.937 33.4042C144.877 32.616 144.847 31.9945 144.847 31.5398V21.8084H148.821V56.3684H145.614L145.027 53.0943H144.847C144.124 54.125 143.16 55.0042 141.956 55.7318C140.752 56.4594 139.201 56.8232 137.304 56.8232ZM137.936 53.5036C140.496 53.5036 142.287 52.8063 143.311 51.4118C144.365 49.9869 144.892 47.8497 144.892 45V44.2724C144.892 41.2408 144.395 38.9217 143.401 37.3149C142.408 35.6779 140.571 34.8594 137.891 34.8594C135.753 34.8594 134.142 35.7234 133.058 37.4514C132.004 39.1491 131.478 41.4379 131.478 44.3179C131.478 47.2282 132.004 49.4867 133.058 51.0935C134.142 52.7002 135.768 53.5036 137.936 53.5036ZM157.052 56.3684V23.9002H161.117V52.7305H175.209V56.3684H157.052ZM182.228 22.8543C182.83 22.8543 183.357 23.0665 183.809 23.4909C184.291 23.8851 184.532 24.5217 184.532 25.4008C184.532 26.2497 184.291 26.8863 183.809 27.3107C183.357 27.7352 182.83 27.9474 182.228 27.9474C181.566 27.9474 181.009 27.7352 180.557 27.3107C180.105 26.8863 179.88 26.2497 179.88 25.4008C179.88 24.5217 180.105 23.8851 180.557 23.4909C181.009 23.0665 181.566 22.8543 182.228 22.8543ZM184.17 31.9945V56.3684H180.196V31.9945H184.17ZM203.493 31.5398C206.384 31.5398 208.567 32.2522 210.042 33.6771C211.517 35.0716 212.255 37.3453 212.255 40.4981V56.3684H208.326V40.7709C208.326 36.8602 206.519 34.9048 202.906 34.9048C200.226 34.9048 198.374 35.6627 197.35 37.1785C196.327 38.6943 195.815 40.8771 195.815 43.7267V56.3684H191.84V31.9945H195.047L195.634 35.3141H195.86C196.643 34.0408 197.727 33.1011 199.112 32.4947C200.497 31.8581 201.957 31.5398 203.493 31.5398ZM229.11 31.5398C231.187 31.5398 232.964 31.9945 234.439 32.904C235.945 33.8135 237.089 35.1019 237.872 36.7693C238.685 38.4063 239.091 40.3314 239.091 42.5444V44.9545H222.515C222.576 47.7133 223.268 49.8202 224.593 51.2754C225.948 52.7002 227.83 53.4126 230.239 53.4126C231.774 53.4126 233.129 53.2762 234.304 53.0034C235.508 52.7002 236.743 52.2758 238.007 51.7301V55.2316C236.773 55.7773 235.553 56.1714 234.349 56.4139C233.144 56.6867 231.714 56.8232 230.058 56.8232C227.77 56.8232 225.737 56.3533 223.961 55.4135C222.214 54.4737 220.844 53.0792 219.851 51.2299C218.887 49.3503 218.405 47.0615 218.405 44.3634C218.405 41.6956 218.842 39.4067 219.715 37.4968C220.618 35.5869 221.868 34.1166 223.464 33.0859C225.09 32.0552 226.972 31.5398 229.11 31.5398ZM229.064 34.8139C227.167 34.8139 225.662 35.4354 224.548 36.6783C223.464 37.8909 222.816 39.5886 222.606 41.7714H234.936C234.906 39.7099 234.424 38.0425 233.491 36.7693C232.557 35.4657 231.082 34.8139 229.064 34.8139Z" fill="black"/>
<g filter="url(#filter0_f_42:16)">
<path d="M4.71982 47.1316C5.09621 27.4264 19.932 16.5001 27.3028 13.5001C43.7696 6.79789 57.4136 32.0382 33.8896 35.0526C24.3029 36.2811 19.3047 43.0264 14.5999 49.7368C11.1497 57.0789 4.34342 66.8368 4.71982 47.1316Z" fill="url(#paint0_radial_42:16)"/>
</g>
<g filter="url(#filter1_f_42:16)">
<path d="M62.7968 72.5452C45.6589 82.0696 28.8426 74.5972 22.5766 69.6704C8.57824 58.6639 23.4672 34.147 37.8221 53.1512C43.6721 60.8954 51.9734 61.8812 60.0976 62.6282C68.1381 61.965 79.9349 63.0208 62.7968 72.5452Z" fill="url(#paint1_radial_42:16)"/>
</g>
<g filter="url(#filter2_f_42:16)">
<path d="M56.5327 9.13609C73.294 19.3169 75.2748 37.7157 74.1696 45.6426C71.7015 63.3515 43.1685 62.6277 52.3375 40.6094C56.0745 31.6363 52.7712 23.9056 49.3513 16.4481C44.7612 9.76879 39.7709 -1.04473 56.5327 9.13609Z" fill="url(#paint2_radial_42:16)"/>
</g>
</g>
<defs>
<filter id="filter0_f_42:16" x="-5.29517" y="2.37262" width="61.7874" height="66.3734" filterUnits="userSpaceOnUse" color-interpolation-filters="sRGB">
<feFlood flood-opacity="0" result="BackgroundImageFix"/>
<feBlend mode="normal" in="SourceGraphic" in2="BackgroundImageFix" result="shape"/>
<feGaussianBlur stdDeviation="5" result="effect1_foregroundBlur_42:16"/>
</filter>
<filter id="filter1_f_42:16" x="6.96582" y="36.1502" width="74.6284" height="50.9871" filterUnits="userSpaceOnUse" color-interpolation-filters="sRGB">
<feFlood flood-opacity="0" result="BackgroundImageFix"/>
<feBlend mode="normal" in="SourceGraphic" in2="BackgroundImageFix" result="shape"/>
<feGaussianBlur stdDeviation="5" result="effect1_foregroundBlur_42:16"/>
</filter>
<filter id="filter2_f_42:16" x="34.9136" y="-5.03797" width="49.5066" height="73.14" filterUnits="userSpaceOnUse" color-interpolation-filters="sRGB">
<feFlood flood-opacity="0" result="BackgroundImageFix"/>
<feBlend mode="normal" in="SourceGraphic" in2="BackgroundImageFix" result="shape"/>
<feGaussianBlur stdDeviation="5" result="effect1_foregroundBlur_42:16"/>
</filter>
<radialGradient id="paint0_radial_42:16" cx="0" cy="0" r="1" gradientUnits="userSpaceOnUse" gradientTransform="translate(25.6562 34.3421) rotate(91.5951) scale(25.3519 22.8449)">
<stop stop-color="#F85521"/>
<stop offset="1" stop-color="#FFE600"/>
</radialGradient>
<radialGradient id="paint1_radial_42:16" cx="0" cy="0" r="1" gradientUnits="userSpaceOnUse" gradientTransform="translate(41.3276 60.6851) rotate(-28.557) scale(25.2194 22.9649)">
<stop stop-color="#FFE600"/>
<stop offset="1" stop-color="#52FF00"/>
</radialGradient>
<radialGradient id="paint2_radial_42:16" cx="0" cy="0" r="1" gradientUnits="userSpaceOnUse" gradientTransform="translate(57.0653 33.7858) rotate(-148.22) scale(25.2278 22.9573)">
<stop offset="0.084497" stop-color="#00FF29"/>
<stop offset="1" stop-color="#00F5C9"/>
</radialGradient>
<clipPath id="clip0_42:16">
<rect width="255" height="90" fill="white"/>
</clipPath>
</defs>
</svg>
