<svg width="90" height="68" viewBox="0 0 90 68" fill="none" xmlns="http://www.w3.org/2000/svg">
<path d="M5 29.5L0.5 29.5L0.5 38.5L5 38.5L5 29.5ZM88.182 37.182C89.9393 35.4246 89.9393 32.5754 88.182 30.818L59.5442 2.1802C57.7868 0.422836 54.9376 0.422836 53.1802 2.1802C51.4228 3.93755 51.4228 6.7868 53.1802 8.54416L78.636 34L53.1802 59.4558C51.4228 61.2132 51.4228 64.0624 53.1802 65.8198C54.9376 67.5772 57.7868 67.5772 59.5442 65.8198L88.182 37.182ZM5 38.5L85 38.5L85 29.5L5 29.5L5 38.5Z" fill="white"/>
</svg>
