<svg width="254" height="242" viewBox="0 0 254 242" fill="none" xmlns="http://www.w3.org/2000/svg">
<path d="M121.38 4.02965C123.324 -1.16843 130.676 -1.16842 132.62 4.02966L161.158 80.3512C162.002 82.6062 164.111 84.1389 166.516 84.244L247.921 87.8011C253.466 88.0433 255.738 95.036 251.395 98.4909L187.628 149.217C185.743 150.716 184.938 153.196 185.581 155.516L207.354 234.036C208.836 239.384 202.888 243.705 198.26 240.643L130.311 195.672C128.304 194.343 125.696 194.343 123.689 195.672L55.7398 240.643C51.1119 243.705 45.1636 239.384 46.6465 234.036L68.419 155.516C69.0623 153.196 68.2566 150.716 66.3724 149.217L2.60525 98.4909C-1.73778 95.036 0.534286 88.0433 6.07859 87.8011L87.4835 84.244C89.8888 84.1389 91.9983 82.6062 92.8416 80.3512L121.38 4.02965Z" fill="#001AFF"/>
</svg>
